<?xml version="1.0" encoding="UTF-8" standalone="no"?>
<!DOCTYPE svg PUBLIC "-//W3C//DTD SVG 1.1//EN" "http://www.w3.org/Graphics/SVG/1.1/DTD/svg11.dtd">
<svg width="100%" height="100%" viewBox="0 0 800 800" version="1.1" xmlns="http://www.w3.org/2000/svg" xmlns:xlink="http://www.w3.org/1999/xlink" xml:space="preserve" xmlns:serif="http://www.serif.com/" style="fill-rule:evenodd;clip-rule:evenodd;stroke-linejoin:round;stroke-miterlimit:2;">
    <path d="M400,91.667C284.941,91.667 191.667,184.941 191.667,300C191.667,415.06 284.934,508.333 399.993,508.333C515.053,508.333 608.333,415.057 608.333,300C608.333,184.941 515.06,91.667 400,91.667ZM141.667,300C141.667,157.326 257.326,41.667 400,41.667C542.673,41.667 658.333,157.326 658.333,300C658.333,434.24 555.937,544.567 424.993,557.14L424.993,591.667L483.333,591.667C497.14,591.667 508.333,602.86 508.333,616.667C508.333,630.473 497.14,641.667 483.333,641.667L424.993,641.667L425,733.33C425.003,747.14 413.81,758.333 400.003,758.333C386.197,758.333 375.003,747.143 375,733.337L374.993,641.667L316.668,641.667C302.861,641.667 291.668,630.473 291.668,616.667C291.668,602.86 302.861,591.667 316.668,591.667L374.993,591.667L374.993,557.14C244.049,544.563 141.667,434.24 141.667,300Z" style="fill:rgb(166,84,229);"/>
</svg>
