<?xml version="1.0" encoding="UTF-8" standalone="no"?>
<!DOCTYPE svg PUBLIC "-//W3C//DTD SVG 1.1//EN" "http://www.w3.org/Graphics/SVG/1.1/DTD/svg11.dtd">
<svg width="100%" height="100%" viewBox="0 0 709 709" version="1.1" xmlns="http://www.w3.org/2000/svg" xmlns:xlink="http://www.w3.org/1999/xlink" xml:space="preserve" xmlns:serif="http://www.serif.com/" style="fill-rule:evenodd;clip-rule:evenodd;stroke-linejoin:round;stroke-miterlimit:2;">
    <g transform="matrix(0.748489,0,0,0.781387,89.123,77.4656)">
        <rect x="0" y="0" width="708.7" height="708.7" style="fill:white;"/>
    </g>
    <g>
        <path d="M442.4,143.8L414.6,143.8L414.6,284L442.4,284C482.6,284 509.8,252.1 509.8,213.9C509.8,175.6 482.6,143.8 442.4,143.8Z" style="fill:rgb(37,33,75);fill-rule:nonzero;"/>
        <ellipse cx="233.5" cy="530.7" rx="36.3" ry="41.6" style="fill:rgb(37,33,75);"/>
        <g transform="matrix(1.00042,0,0,1.00042,0,0)">
            <path d="M0,0L0,708.7L708.7,708.7L708.7,0L0,0ZM317.6,614.5L267,614.5L267,603.8C258.3,612.2 244.2,618.2 227.4,618.2C177.8,618.2 144.9,577.3 144.9,530.7C144.9,484.1 177.8,443.2 227.4,443.2C244.2,443.2 257.5,448.4 267,455.9L267,376.5L317.6,376.5L317.6,614.5ZM317.6,332.9L165.7,332.9L165.7,94.8L219,94.8L219,281.9L317.6,281.9L317.6,332.9ZM498.4,614.6L414.6,517.3L414.6,614.6L361.3,614.6L361.3,376.5L448.5,376.5C493.4,376.5 521.6,408.7 522.3,448.3C523,479.5 503.9,503 474.3,512.7L563.2,614.6L498.4,614.6ZM442.4,332.9L361.2,332.9L361.2,94.8L442.4,94.8C509.5,94.8 563.8,147.8 563.8,213.8C563.8,279.9 509.5,332.9 442.4,332.9Z" style="fill:rgb(37,33,75);fill-rule:nonzero;"/>
        </g>
        <path d="M442.4,425.4L414.6,425.4L414.6,471L442.4,471C457.8,471 469.2,462.3 469.2,448.2C469.2,433.8 457.8,425.4 442.4,425.4Z" style="fill:rgb(37,33,75);fill-rule:nonzero;"/>
    </g>
    <g>
        <path d="M144.9,530.7C144.9,484.1 177.8,443.2 227.4,443.2C244.2,443.2 257.5,448.4 267,455.9L267,376.5L317.6,376.5L317.6,614.5L267,614.5L267,603.8C258.3,612.2 244.2,618.2 227.4,618.2C177.7,618.2 144.9,577.3 144.9,530.7ZM269.8,530.7C269.8,508.2 254.3,489.1 233.5,489.1C211,489.1 197.2,508.2 197.2,530.7C197.2,553.2 211,572.3 233.5,572.3C254.3,572.3 269.8,553.2 269.8,530.7Z" style="fill:rgb(255,204,5);fill-rule:nonzero;"/>
    </g>
</svg>
