<svg height="138.2pt" viewBox="0 0 461.29 138.2" width="461.29pt" xmlns="http://www.w3.org/2000/svg" xmlns:xlink="http://www.w3.org/1999/xlink"><clipPath id="a"><path d="m51 85h46v53.199219h-46zm0 0"/></clipPath><clipPath id="b"><path d="m130 64h55v74.199219h-55zm0 0"/></clipPath><clipPath id="c"><path d="m192 85h53v53.199219h-53zm0 0"/></clipPath><clipPath id="d"><path d="m254 87h48v51.199219h-48zm0 0"/></clipPath><clipPath id="e"><path d="m357 85h47v53.199219h-47zm0 0"/></clipPath><clipPath id="f"><path d="m411 85h50.289063v53.199219h-50.289063zm0 0"/></clipPath><g fill="#6d6e71"><path d="m130.386719 24.582031c0-13.832031 9.394531-24.57812475 23.746094-24.57812475 13.898437 0 17.695312 7.78515675 17.695312 7.78515675v4.503906h-5.148437s-2.1875-6.496094-12.355469-6.496094c-10.617188 0-16.859375 8.167969-16.859375 18.785156 0 10.554688 6.242187 19.113282 16.859375 19.113282 9.976562 0 12.675781-6.757813 12.675781-6.757813h5.148438v4.507813s-4.3125 8.105468-18.015625 8.105468c-15.636719 0-23.746094-11.257812-23.746094-24.96875"/><path d="m179.351563.644531h6.433593v48.261719h-6.433593z"/><path d="m195.308594 16.734375h6.433594v32.171875h-6.433594z"/><path d="m211.265625 16.734375h5.789063l.453125 4.3125c1.605468-2.191406 4.632812-4.957031 9.84375-4.957031 8.878906 0 12.226562 6.113281 12.226562 13.578125v19.238281h-6.433594v-18.851562c0-5.085938-2.0625-8.558594-7.273437-8.558594-6.179688 0-8.171875 4.375-8.171875 8.492187v18.917969h-6.433594z"/><path d="m248.773438 16.734375h6.4375v32.171875h-6.4375z"/><path d="m289.054688 32.757813c0-6.179688-3.796875-11.199219-9.910157-11.199219-6.757812 0-9.910156 5.019531-9.910156 11.199219 0 6.242187 3.152344 11.324218 9.910156 11.324218 6.113282 0 9.910157-5.082031 9.910157-11.324218zm0 11.132812c-2.445313 3.472656-6.242188 5.660156-11.199219 5.660156-9.457031 0-15.054688-7.589843-15.054688-16.792968s5.597657-16.667969 15.054688-16.667969c4.957031 0 8.753906 2.1875 11.199219 5.664062l.644531-5.019531h5.789062v48.261719h-6.433593z"/><path d="m304.625 35.976563v-19.242188h6.433594v18.851563c0 5.085937 2.058594 8.558593 7.269531 8.558593 6.179688 0 8.175781-4.375 8.175781-8.492187v-18.917969h6.433594v32.171875h-5.792969l-.449218-4.3125c-1.609375 2.191406-4.699219 4.957031-9.847657 4.957031-8.878906 0-12.222656-6.113281-12.222656-13.574218"/><path d="m364.851563 28.894531c0-4.179687-2.707032-7.335937-8.367188-7.335937-5.792969 0-8.300781 3.089844-9.203125 7.335937zm-24.324219 3.863282c0-9.203125 5.59375-16.667969 15.890625-16.667969 10.363281 0 14.738281 6.046875 14.738281 14.15625 0 1.996094-.257812 3.476562-.257812 3.476562h-23.9375c.320312 6.304688 3.730468 10.292969 10.230468 10.292969 7.335938 0 9.136719-3.921875 9.136719-3.921875h4.183594v4.179688s-3.214844 5.277343-13.320313 5.277343c-11.003906 0-16.664062-6.949218-16.664062-16.792968"/><path d="m416.15625 32.433594c0-6.175781-3.796875-11.195313-9.90625-11.195313-6.695312 0-9.910156 5.019532-9.910156 11.195313 0 6.242187 3.214844 11.328125 9.910156 11.328125 6.109375 0 9.90625-5.085938 9.90625-11.328125zm-26.253906 0c0-9.203125 5.664062-16.664063 15.058594-16.664063 4.953125 0 8.753906 2.1875 11.195312 5.660157v-21.105469h6.4375v48.261719h-5.792969l-.644531-5.019532c-2.441406 3.472657-6.242187 5.664063-11.195312 5.664063-9.394532 0-15.058594-7.59375-15.058594-16.796875"/><path d="m454.507813 28.574219c0-4.183594-2.703125-7.335938-8.367188-7.335938-5.789062 0-8.300781 3.085938-9.203125 7.335938zm-24.324219 3.859375c0-9.203125 5.597656-16.664063 15.890625-16.664063 10.363281 0 14.738281 6.046875 14.738281 14.15625 0 1.992188-.257812 3.476563-.257812 3.476563h-23.9375c.320312 6.304687 3.734375 10.292969 10.230468 10.292969 7.335938 0 9.136719-3.925782 9.136719-3.925782h4.183594v4.183594s-3.21875 5.277344-13.320313 5.277344c-11 0-16.664062-6.953125-16.664062-16.796875"/><path d="m255.453125 4.109375c0 1.910156-1.546875 3.460938-3.460937 3.460938-1.914063 0-3.464844-1.550782-3.464844-3.460938 0-1.914062 1.550781-3.464844 3.464844-3.464844 1.914062 0 3.460937 1.550782 3.460937 3.464844"/><path d="m201.742188 4.109375c0 1.910156-1.550782 3.460938-3.464844 3.460938-1.910156 0-3.460938-1.550782-3.460938-3.460938 0-1.914062 1.550782-3.464844 3.460938-3.464844 1.914062 0 3.464844 1.550782 3.464844 3.464844"/><path d="m895.15625 978.132813c-.898437-57.773438-50.390625-89.960938-118.476562-89.960938-.117188 0-.195313 0-.3125 0h-653.398438c-37.1875 0-66.367187 6.171875-86.328125 23.046875-19.960937 16.875-30.390625 44.257813-30.390625 85.859375l-1.25 218.007813c0 51.015625 13.554688 82.65625 36.992188 101.40625 23.398437 18.710937 56.25 24.414062 94.414062 24.414062h331.992188l1.289062-320.703125h139.726563v171.289063c0 45.273437 5.976562 82.617187 27.773437 108.75 21.796875 26.132812 59.179688 40.585937 121.132813 40.585937h253.75v-137.226562h122.617187v-107.539063h-124.101562v-80.195312h-13.359375v93.203125h124.414062v81.640625h-122.617187v137.1875h-239.21875c-109.648438-1.054688-136.25-46.054688-136.5625-136.40625v-171.71875h101.601562v-12.890625h-268.554687l-1.132813 320.78125-318.046875-.039063c-71.289062-.3125-118.632812-16.367187-118.90625-119.53125l1.25-201.71875c.273438-86.71875 35.742188-104.53125 108.476563-104.882812h243.203125c-30.039063 14.453125-53.984375 43.515625-53.90625 98.320312 0 2.34375.039062 4.726563.117187 7.148438h-134.84375c-9.179687 0-19.21875 1.015625-27.148437 5.859375-7.929688 4.84375-13.515625 13.75-13.476563 28.554687v126.054688c-.039062 16.054687 4.84375 25.234375 12.617188 30.078125 7.734375 4.84375 17.890625 5.390625 28.398437 5.390625h146.484375 1.328125v-208.789063c.117188-53.398437 32.734375-92.734375 101.484375-92.890625l346.71875-.078125c56.953125.898438 100.78125 23.203125 102.109375 77.382813l.117188 117.460937-118.359375-.078125v107.65625h127.8125v-13.007812h-114.53125v-80.664063h119.140625zm-576.132812 40.546875v1.367187zm-164.101563 147.8125v-120.039063c.351563-22.695312 8.359375-26.054687 28.046875-26.40625h134.726563v169.648438h-136.289063c-13.59375-.3125-26.210937.429687-26.484375-23.203125" stroke="#6d6e71" stroke-miterlimit="10" stroke-width="10" transform="matrix(.1 0 0 -.1 0 138.2)"/><path d="m.472656 66.386719h16.324219v57.167969h29.507813v13.234375h-45.832032z"/></g><g clip-path="url(#a)"><path d="m81.996094 118.726563v-2.164063s-3.445313-.785156-8.261719-.785156c-5.804687 0-7.671875 2.457031-7.671875 5.605469 0 3.832031 2.460938 5.410156 6.492188 5.410156 6.394531 0 9.441406-4.527344 9.441406-8.066406zm-30.585938 4.03125c0-9.441407 6.882813-15.441407 21.339844-15.441407 5.113281 0 9.246094.984375 9.246094.984375v-2.164062c0-5.410156-2.554688-8.257813-8.160156-8.257813-6.394532 0-8.460938 4.519532-8.460938 4.519532h-11.210937v-6.589844s4.230468-10.226563 19.960937-10.226563c15.152344 0 22.722656 7.183594 22.722656 21.046875v30.09375h-13.378906l-.980469-6.292968c-2.460937 4.03125-6.886718 7.773437-14.753906 7.773437-10.914062 0-16.324219-6.984375-16.324219-15.445312" fill="#6d6e71"/></g><g clip-path="url(#b)"><path d="m130.082031 123.929688v-7.039063h12.878907c1.96875 5.257813 6.691406 8.542969 14.558593 8.542969 6.886719 0 11.507813-3.003906 11.507813-8.261719 0-4.597656-3.34375-7.226562-10.820313-8.824219l-6.785156-1.222656c-13.472656-2.53125-20.949219-9.386719-20.949219-20.738281 0-13.523438 10.621094-21.40625 26.851563-21.40625 13.570312 0 22.914062 5.351562 24.980469 13.988281v7.132813h-12.785157c-1.28125-4.789063-4.917968-8.355469-12.589843-8.355469-6.882813 0-10.621094 3.097656-10.621094 7.789062 0 3.851563 2.75 6.386719 9.835937 7.886719l7.082032 1.503906c13.472656 2.625 21.632812 9.667969 21.632812 21.402344 0 13.421875-11.210937 21.875-27.636719 21.875-15.242187 0-23.996093-6.480469-27.140625-14.273437" fill="#6d6e71"/></g><g clip-path="url(#c)"><path d="m230.09375 111.742188c0-7.277344-3.636719-13.277344-11.410156-13.277344-7.765625 0-11.40625 6-11.40625 13.277344 0 7.476562 3.640625 13.574218 11.40625 13.574218 7.773437 0 11.410156-6.097656 11.410156-13.574218zm-37.664062 0c0-14.457032 9.734375-26.160157 26.253906-26.160157 16.425781 0 26.261719 11.703125 26.261719 26.160157 0 14.558593-9.835938 26.460937-26.261719 26.460937-16.519531 0-26.253906-11.902344-26.253906-26.460937" fill="#6d6e71"/></g><g clip-path="url(#d)"><path d="m254.28125 117.941406v-30.882812h14.851563v28.125c0 5.800781 2.164062 9.738281 7.871093 9.738281 6.980469 0 9.242188-5.113281 9.242188-9.933594v-27.929687h14.847656v49.664062h-13.863281l-.691406-6.589843c-2.164063 3.738281-6.886719 8.070312-14.359375 8.070312-13.175782 0-17.898438-9.445312-17.898438-20.261719" fill="#6d6e71"/></g><path d="m313.679688 87.058594h13.867187l.6875 6.488281c2.160156-4.128906 6.585938-7.964844 13.277344-7.964844 7.671875 0 11.703125 4.328125 12.488281 10.523438v7.082031h-11.308594c-.097656 0-.6875-4.816406-6.492187-4.816406-5.308594 0-7.671875 4.519531-7.671875 10.617187v27.734375h-14.847656z" fill="#6d6e71"/><g clip-path="url(#e)"><path d="m357.4375 112.039063c0-14.558594 9.636719-26.554688 25.960938-26.554688 16.820312 0 20.359375 11.605469 20.359375 11.605469v6.589844h-11.113282s-1.472656-5.308594-9.246093-5.308594c-7.570313 0-11.113282 6.191406-11.113282 13.667969 0 7.375 3.542969 13.277343 11.113282 13.277343 8.164062 0 9.34375-5.308593 9.34375-5.308593h11.117187v6.585937s-3.839844 11.609375-20.460937 11.609375c-17.40625 0-25.960938-11.808594-25.960938-26.164062" fill="#6d6e71"/></g><g clip-path="url(#f)"><path d="m447.027344 106.332031c0-4.71875-3.246094-8.945312-9.933594-8.945312-6.488281 0-9.640625 3.734375-10.820312 8.945312zm-35.996094 5.707032c0-14.558594 9.441406-26.457032 26.164063-26.457032 16.8125 0 24.089843 10.132813 24.089843 23.40625 0 3.441407-.6875 6.296875-.6875 6.296875h-34.617187c.886719 6.683594 4.820312 11.015625 12.097656 11.015625 8.851563 0 10.621094-4.527343 10.621094-4.527343h11.605469v6.589843s-4.820313 9.839844-22.523438 9.839844c-17.894531 0-26.75-11.410156-26.75-26.164062" fill="#6d6e71"/></g></svg>