<?xml version="1.0" encoding="UTF-8"?><svg id="Ebene_1" xmlns="http://www.w3.org/2000/svg" viewBox="0 0 127.56 127.56"><circle cx="63.78" cy="63.78" r="63.78" fill="#00283c" stroke-width="0"/><path d="m55.37,17.93l1.64-1.24c.41.7,1.02,1.14,2.03,1.01.97-.12,1.17-.53,1.13-.88-.07-.55-.61-.71-2-.91-1.38-.21-2.76-.69-2.97-2.4-.21-1.73,1.13-2.91,2.67-3.1,1.47-.18,2.71.38,3.52,1.62l-1.6,1.22c-.39-.6-.86-.95-1.68-.85-.64.08-.92.44-.88.8.05.41.3.66,1.75.92,1.41.24,2.99.53,3.22,2.43.21,1.73-1.05,2.92-2.99,3.16-1.88.23-3.19-.52-3.86-1.78Z" fill="#fff" stroke-width="0"/><path d="m64.91,9.82l2.15.26.79,6.46,2.49-6.06,1.66.2.97,6.48,2.31-6.09,2.15.26-3.56,8.66-2.33-.28-.82-5.47-2.1,5.11-2.33-.28-1.38-9.26Z" fill="#fff" stroke-width="0"/><path d="m82.99,13.38l-2.9,8.55-1.95-.66,2.9-8.55,1.95.66Z" fill="#fff" stroke-width="0"/><path d="m83.27,20.87l2.05-.09c-.06.81.2,1.51,1.1,1.98.87.45,1.27.22,1.43-.09.26-.49-.1-.92-1.13-1.88-1.02-.95-1.89-2.13-1.09-3.66.8-1.54,2.57-1.76,3.96-1.04,1.32.68,2.02,1.85,1.99,3.33l-2.01.1c.02-.71-.17-1.27-.9-1.65-.57-.3-1.01-.16-1.17.16-.19.37-.13.72.92,1.74,1.02,1,2.16,2.13,1.28,3.82-.8,1.54-2.51,1.82-4.25.91-1.68-.87-2.34-2.23-2.17-3.65Z" fill="#fff" stroke-width="0"/><path d="m91.3,25.29l2.03.3c-.21.79-.09,1.52.7,2.16.77.61,1.2.46,1.42.19.35-.43.08-.93-.75-2.06-.82-1.13-1.44-2.45-.36-3.8,1.09-1.36,2.86-1.23,4.08-.26,1.16.92,1.62,2.2,1.31,3.65l-2-.29c.16-.7.08-1.27-.57-1.79-.5-.4-.96-.35-1.18-.07-.26.32-.26.68.57,1.89.81,1.18,1.71,2.51.52,4-1.09,1.36-2.82,1.3-4.35.08-1.48-1.18-1.87-2.64-1.43-4Z" fill="#fff" stroke-width="0"/><path d="m105.07,40.02l-1.63,1.13-3.23-4.66,7.42-5.15,3.2,4.61-1.63,1.13-2.02-2.91-1.23.85,1.84,2.65-1.61,1.12-1.84-2.65-1.31.91,2.06,2.97Z" fill="#fff" stroke-width="0"/><path d="m109.16,49.9l-.54,1.2-1.78-.87.57-1.28c-.53-.47-.97-1.06-1.26-1.77-.99-2.4.09-5.12,2.55-6.13s5.14.15,6.13,2.55c.99,2.4-.09,5.12-2.55,6.13-1.05.43-2.14.46-3.12.17Zm-.85-2.93l.78-1.73,1.78.87-.87,1.92c.47.06.98,0,1.49-.21,1.49-.61,2.04-2.1,1.48-3.46s-1.99-2.02-3.48-1.41c-1.49.62-2.04,2.1-1.48,3.46.08.2.19.38.3.56Z" fill="#fff" stroke-width="0"/><path d="m111.49,53.27l6.04-.97.33,2.04-5.86.94c-.67.11-1.2.52-1.02,1.6.17,1.08.8,1.31,1.47,1.2l5.86-.94.33,2.04-6.04.97c-1.91.31-3.29-.99-3.61-2.95-.31-1.96.6-3.62,2.51-3.93Z" fill="#fff" stroke-width="0"/><path d="m111.57,69.15l-1.98-.07.21-5.67,9.02.33-.21,5.61-1.98-.07.13-3.54-1.49-.06-.12,3.22-1.96-.07.12-3.22-1.6-.06-.13,3.61Z" fill="#fff" stroke-width="0"/><path d="m111.37,71.49l.61,1.96c-.8.15-1.41.58-1.64,1.57-.22.96.11,1.28.45,1.36.54.12.87-.33,1.53-1.57.66-1.23,1.58-2.36,3.27-1.98,1.7.39,2.35,2.04,2.01,3.56-.33,1.45-1.28,2.42-2.72,2.77l-.61-1.92c.7-.16,1.18-.49,1.36-1.29.14-.63-.1-1.01-.45-1.09-.4-.09-.73.06-1.45,1.34-.71,1.24-1.51,2.63-3.37,2.21-1.7-.39-2.39-1.97-1.96-3.88.42-1.85,1.57-2.83,2.98-3.03Z" fill="#fff" stroke-width="0"/><path d="m111.08,88.31l.93-2.13-6.45-2.82.83-1.89,6.45,2.82.93-2.13,1.82.8-2.69,6.14-1.82-.8Z" fill="#fff" stroke-width="0"/><path d="m104.38,91.39l.55-.81-2.45-1.68,1.17-1.7,7.45,5.1-2.04,2.98c-.97,1.41-2.89,1.77-4.3.8-.91-.63-1.37-1.75-1.22-2.85l-3.82-.29,1.25-1.83,3.41.27Zm2.04.21l-.87,1.28c-.32.47-.17,1.14.37,1.51.54.37,1.22.27,1.54-.19l.87-1.28-1.91-1.31Z" fill="#fff" stroke-width="0"/><path d="m103.26,102.3l-6.56-6.2,1.42-1.5,6.56,6.2-1.42,1.5Z" fill="#fff" stroke-width="0"/><path d="m91.46,102.41l2.67-2.03-.5-1.4,1.79-1.37,3.03,9.04-2.09,1.6-7.91-5.32,1.79-1.37,1.22.85Zm1.66,1.16l2.85,1.99-1.17-3.28-1.68,1.28Z" fill="#fff" stroke-width="0"/><path d="m84.16,114.99l-3.8-8.19,1.4-.65,5.22,2.98-2.06-4.44,1.87-.87,3.8,8.19-1.4.65-5.22-2.98,2.06,4.44-1.87.87Z" fill="#fff" stroke-width="0"/><rect x="36.57" y="12.62" width="12.67" height="12.46" transform="translate(-3.92 17.05) rotate(-21.52)" fill="red" stroke-width="0"/><polygon points="46.1 16.34 43.58 17.33 42.59 14.82 40.38 15.69 41.37 18.2 38.86 19.19 39.73 21.4 42.25 20.41 43.24 22.93 45.45 22.06 44.46 19.54 46.97 18.55 46.1 16.34" fill="#fff" stroke-width="0"/><path d="m84.41,73.22l-.5-.97-.11-.23c-.21-.45-.43-.91-.63-1.38-.46-1.06-.9-2.19-1.31-3.36-.38-1.09-.76-2.26-1.13-3.49-.62-2.09-1.23-4.37-1.89-7.18-.06-.25-.13-.52-.2-.79l-.04-.14c-.05-.21-.11-.42-.18-.63-.03-.11-.06-.21-.1-.33-.1-.31-.2-.62-.31-.94-.04-.1-.08-.21-.12-.31-.07-.2-.15-.41-.23-.6-.51-1.24-1.11-2.42-1.81-3.5-.71-1.1-1.53-2.13-2.46-3.07l-.12-.12c-.08-.08-.15-.15-.23-.23l-.35-.32c-.18-.17-.37-.33-.56-.48l-.18-.15c-.13-.11-.27-.22-.4-.32-.12-.09-.23-.17-.35-.25l-.05-.03c-.25-.18-.46-.32-.63-.46-.16-.13-.28-.25-.37-.38-.03-.04-.06-.09-.09-.15,0-.03-.02-.08-.04-.13-.04-.18-.07-.41-.08-.65,0-.12-.01-.25-.01-.36v-.42s0-3.28,0-3.28v-6.53s0-.27,0-.27h-2.96v.27c0,.51-.1,1.01-.26,1.5-.13.42-.36.86-.69,1.35-.1.16-.23.31-.36.47l-.1.12-.1.11c-.14.15-.28.3-.43.43-.4.37-.78.65-1.17.87-.06.04-.11.07-.17.1-.04.02-.08.04-.11.06l-.14.07-.25.11c-.07.03-.13.06-.2.08l-.19.07s-.07.03-.13.04c-.18.06-.37.12-.55.18-.35.11-.67.22-1,.33-1.06.38-1.96.73-2.75,1.08-1.09.48-2.01.96-2.76,1.39-1.78.78-3.64,1.73-5.36,2.74-1.49.88-2.83,1.74-3.98,2.56-.26.18-.51.36-.76.54l-.46.34c-.19.14-.39.28-.58.43-.19.15-.37.29-.55.43-.36.28-.7.54-1.02.81-.16.14-.32.27-.48.4-.3.25-.59.49-.85.72l-1.04.92c-.55.51-.9.86-1.02.97l-.02.02s-.35.34-.92.99c-.08.09-.16.18-.25.27-.18.2-.39.43-.6.68v.02c-.26.27-.5.52-.71.75l-.27.29-1.15,1.34s-.03.04-.05.07c-.07.08-.17.2-.29.36l-.64.87c-.52.68-1.15,1.64-1.88,2.74l-1.26,2.07c-.27.47-.53.95-.8,1.46-.12.23-.25.46-.38.7-.26.52-.52,1.07-.78,1.6-.12.25-.24.49-.36.75-.26.6-.51,1.2-.76,1.8l-.28.66-.9,2.49-.74,2.44c-.36,1.4-.77,3.02-.99,4.38l-.2,1.16-.08.6c-.06.54-.1,1-.13,1.37-.08,1.14-.03,1.44.27,1.49h0s.04,0,.06,0c.25,0,.41-.29.72-1.29.11-.35.24-.79.38-1.3l.08-.31.43-1.36c.33-1.16.81-2.5,1.31-3.92l.97-2.48,1.04-2.32,1.14-2.28c.16-.29.33-.58.49-.87.24-.44.49-.88.73-1.29.17-.27.34-.54.5-.81.25-.41.49-.81.73-1.18l1.19-1.76.34-.46c.64-.87,1.19-1.63,1.66-2.18l.65-.81c.1-.13.18-.22.24-.29.04-.05.07-.08.09-.1l1.04-1.29.33-.39c.21-.25.44-.52.69-.8.14-.15.28-.29.41-.42.1-.1.2-.2.29-.3.4-.41.69-.69.83-.83l1.02-1.05.94-.93c.22-.22.46-.44.72-.68.16-.14.32-.29.48-.45.27-.25.56-.51.87-.78.18-.16.37-.32.56-.49.16-.14.32-.27.49-.41.1-.08.2-.17.3-.25l.17-.14c.21-.18.43-.36.66-.54.26-.22.54-.43.83-.66-.1.19-.2.39-.29.6-.17.33-.3.68-.44,1.05-.04.1-.08.2-.12.32l-.06.17c-.14.43-.28.87-.38,1.33-.26,1.1-.43,2.24-.49,3.39-.12,2.3.11,4.89.69,7.69.16.77.33,1.52.52,2.27.07.3.14.6.22.92l.17.65c.04.15.08.3.13.45.02.08.05.15.07.22.09.32.19.62.3.91.05.13.09.26.14.4.1.28.21.54.31.81.05.14.11.27.16.42l.5,1.17c1.36,3.09,2.77,5.81,4.01,8.21,1.17,2.26,2.23,4.25,3.17,6l3.79,7.1c.09.16.23.43.42.79.71,1.33,2.04,3.8,3.83,7.3,1.13,2.22,2.48,4.9,3.85,7.89.75,1.65,1.44,3.21,2.08,4.79l.16.39c.28.71.58,1.45.84,2.21l.19.51-.4.07c-.45.07-.93.15-1.49.22-.97.13-2.01.24-3.06.31-1.04.08-2.11.12-3.17.13-.34,0-.69,0-1.03-.01-.2,0-.39,0-.59-.01l-.96-.02c-.23,0-.45,0-.67-.03-4.8-.28-9.34-1.14-13.5-2.55-.89-.27-1.78-.62-2.64-.96-.24-.09-.49-.19-.72-.28-.36-.15-.71-.31-1.06-.46-.2-.09-.4-.18-.6-.27-.1-.05-.2-.09-.3-.13-.18-.08-.35-.16-.52-.24l-1.82-.92c-.22-.11-.42-.21-.63-.34l-1.62-.92c-.2-.11-.39-.23-.59-.35l-1.75-1.11-1.71-1.21c-.2-.14-.38-.27-.56-.41l-1.49-1.16c-.17-.12-.32-.26-.49-.4-.07-.06-.15-.13-.22-.19l-.71-.61c-.09-.07-.17-.15-.26-.22-.15-.13-.3-.26-.45-.39l-1.72-1.62c-.07-.07-.14-.14-.2-.21l-1.43-1.48c-.27-.29-.54-.6-.8-.9-.15-.17-.3-.34-.45-.51-.07-.09-.15-.17-.22-.26-.14-.15-.27-.3-.39-.45l-.59-.75c-.63-.76-1.22-1.58-1.79-2.37-.15-.21-.31-.43-.45-.63-.16-.25-.33-.5-.49-.75-.52-.79-1.05-1.6-1.51-2.44-.49-.8-.93-1.64-1.35-2.46-.14-.28-.28-.55-.42-.81-.14-.3-.28-.6-.42-.9-.38-.81-.77-1.65-1.09-2.5l-.41-1.01c-.04-.09-.07-.18-.1-.27l-.75-2.18c-.12-.37-.23-.75-.33-1.12-.06-.21-.12-.42-.18-.63l-.25-.86-.21-.88c-.05-.21-.1-.42-.15-.63-.09-.37-.18-.75-.26-1.12l-.33-1.78c-.09-.45-.16-.91-.21-1.36-.02-.13-.03-.26-.05-.38l-.14-1.06c-.03-.24-.06-.46-.08-.69-.45-4.53-.33-9.06.35-13.47.59-3.89,1.68-7.8,3.24-11.61l.89-2.04c.07-.16.14-.32.22-.47l1.17-2.35,1.24-2.18c.08-.15.17-.3.3-.5l.95-1.49c.28-.47.6-.9.9-1.32.12-.16.23-.32.35-.48l.22-.31c.34-.47.66-.92,1-1.33l1.18-1.48c.24-.29.49-.57.73-.84.14-.16.28-.31.41-.46l.56-.63c.16-.18.31-.36.48-.52l1.78-1.82.72-.67c1.46-1.38,1.48-1.43,1.29-1.66-.2-.25-.29-.2-1.83,1.05l-.78.64-1.89,1.75c-.19.17-.36.35-.56.55l-.56.59c-.13.14-.26.27-.4.41-.27.28-.54.56-.82.87l-1.25,1.46c-.38.43-.73.88-1.1,1.37l-.22.29c-.11.15-.23.31-.35.46-.33.43-.68.88-.99,1.36l-1,1.48c-.14.2-.25.37-.34.53l-1.32,2.2-1.25,2.37c-.09.17-.17.34-.25.51l-.95,2.06c-1.69,3.9-2.89,7.92-3.57,11.94-.78,4.55-.98,9.24-.59,13.94.01.25.04.5.07.75l.18,1.47c.06.48.11.97.21,1.45l.31,1.83c.08.4.17.8.26,1.19.05.21.1.42.14.64l.21.93.25.91c.06.21.12.42.18.63.11.39.22.8.34,1.2l.75,2.26c.04.1.07.2.11.3l.4,1.04c.33.91.73,1.8,1.12,2.66.13.3.27.6.41.91.14.27.27.54.41.82.44.87.89,1.78,1.4,2.63.48.89,1.04,1.76,1.57,2.6.16.25.32.49.48.75.15.21.29.42.44.63.59.85,1.21,1.73,1.87,2.55l.6.77c.13.17.28.34.42.5.07.09.15.17.23.26.15.17.3.35.44.52.27.32.55.65.85.97l1.46,1.55c.07.08.15.16.23.24l1.77,1.71c.16.14.32.28.48.42.09.08.17.15.26.23l.74.65c.07.06.15.13.22.19.17.15.35.31.53.45l1.52,1.21c.2.16.41.31.61.46l1.78,1.28,1.82,1.18c.21.13.42.27.64.39l1.66.97c.22.14.46.26.68.37l1.89.98c.19.09.38.18.57.27l.3.14c.2.09.4.18.6.27.37.17.75.35,1.14.51.24.09.47.19.71.28.92.37,1.87.75,2.82,1.06,4.38,1.54,9.16,2.49,14.2,2.82.25.03.5.03.74.04l1.01.03c.2,0,.4.01.6.02.33.01.67.02,1,.02.04,0,.07,0,.11,0,1.12,0,2.25-.04,3.35-.11,1.12-.07,2.21-.17,3.24-.3.58-.07,1.1-.14,1.57-.22l.39-.06,3.46-.64-1-3.08-.26-.75c-.28-.8-.58-1.57-.87-2.32l-.15-.39c-.65-1.62-1.34-3.24-2.1-4.93-1.38-3.07-2.72-5.79-3.85-8.04-1.92-3.81-3.35-6.5-3.96-7.65-.12-.23-.21-.4-.28-.52l-3.92-7.25c-.92-1.7-1.97-3.63-3.11-5.79-1.18-2.24-2.64-5.02-3.99-7.99l-.48-1.1c-.05-.14-.11-.28-.17-.42-.1-.24-.19-.48-.28-.71-.04-.13-.09-.26-.14-.38-.09-.25-.19-.5-.25-.75-.02-.07-.04-.14-.07-.22-.04-.12-.07-.23-.11-.36l-.16-.62c-.09-.34-.17-.66-.25-.98-.16-.68-.3-1.37-.43-2.05-.49-2.56-.67-4.89-.55-6.93.06-.96.21-1.91.44-2.83.08-.34.19-.67.29-.99l.07-.21c.04-.11.09-.21.13-.32.11-.27.2-.52.33-.76.31-.69.7-1.27,1-1.73l.52-.68.49-.57c.5-.53.9-.88,1.14-1.1.07-.06.13-.11.15-.14l.74-.6.8-.57c1.04-.7,2.22-1.35,3.5-1.93.71-.33,1.53-.66,2.51-1.02.29-.11.59-.21.9-.31.18-.06.36-.12.54-.18l.45-.16c.14-.05.26-.1.38-.16l.35-.16.22-.12s.09-.05.13-.07c.1-.06.21-.11.3-.18.54-.32,1.07-.73,1.61-1.23l.06,4.05c0,.17.01.33.03.5.02.29.06.65.16,1.08.06.22.11.43.24.7.12.23.23.42.36.59.23.32.53.61.87.89.27.21.53.39.76.54l.39.27c.1.07.19.14.3.23.06.05.12.1.19.15.16.12.31.24.45.38l.31.28c.06.06.12.12.19.18l.11.11c.81.79,1.53,1.66,2.15,2.6.63.94,1.18,1.96,1.64,3.05.07.16.14.33.21.51.04.1.08.2.12.3.1.28.2.55.29.82.03.1.06.21.1.31.06.17.11.36.16.54l.05.18c.06.22.12.45.18.69.73,2.84,1.39,5.16,2.07,7.28.41,1.27.81,2.44,1.24,3.57.45,1.21.93,2.38,1.44,3.47.23.51.48,1.01.72,1.49l.67,1.23.12.19-.28.22c-.47.35-.94.67-1.4.97-.95.62-1.91,1.19-2.9,1.76l-1.46.85-.72.44c-.04-.05-.09-.1-.14-.16-.06-.07-.19-.21-.4-.42l-.12-.13c-.44-.43-.88-.81-1.31-1.13-.81-.61-1.7-1.19-2.75-1.75-1.27-.69-2.5-1.26-3.69-1.8-.51-.23-1-.46-1.48-.69-1.84-.87-3.1-1.59-4.07-2.33-.58-.44-1.05-.86-1.43-1.29-.36-.4-.68-.85-.95-1.33l-.02-.03c-.11-.18-.22-.43-.34-.73-.08-.22-.15-.44-.23-.72-.11-.42-.19-.82-.25-1.19-.03-.2-.05-.36-.07-.51-.07-.54-.1-.75-.36-.76,0,0,0,0-.01,0h-.12s0,0,0,0h0l-.08.08s-.18.18-.16,1.25c0,.4.05.84.13,1.32.05.3.12.58.19.83.09.29.18.59.35.92h0c.28.57.61,1.11,1,1.6.4.51.9,1.01,1.53,1.53,1.02.85,2.32,1.66,4.2,2.65.52.27,1.05.54,1.59.82,1.12.56,2.27,1.15,3.42,1.82.95.55,1.76,1.1,2.48,1.68.37.29.73.63,1.11,1.01.05.05.09.1.14.15.13.14.25.27.46.54.05.06.09.11.14.17.08.1.16.2.24.31l.52.7.2-.11c.21-.11.43-.24.65-.37.14-.08.28-.16.41-.24l2.35-1.31c.98-.54,2.02-1.11,3.04-1.74.5-.31,1.01-.65,1.52-1.01l.53-.39.98-.74.19-.14.05-.22-.94-1.65Z" fill="#fff" stroke-width="0"/></svg>